<svg xmlns="http://www.w3.org/2000/svg" viewBox="0 0 900 720" role="img" aria-label="전국 낚시 포인트 지도">
  <defs><linearGradient id="bg" x1="0" x2="1" y1="0" y2="1"><stop stop-color="#ccefeb"/><stop offset="1" stop-color="#087b83"/></linearGradient></defs>
  <rect width="900" height="720" rx="30" fill="url(#bg)"/>
  <path d="M486 56c80 54 102 118 72 190 88 82 82 171 20 252 54 74 44 142-44 186-84-12-138-72-172-151-70-57-78-133-30-230-46-72-17-145 154-247Z" fill="#f8fbf8" stroke="#063f46" stroke-width="5"/>
  <ellipse cx="318" cy="642" rx="84" ry="34" fill="#f8fbf8" stroke="#063f46" stroke-width="5"/>
  <g font-family="Segoe UI, Arial" font-weight="800" font-size="24">
    <g transform="translate(340 230)"><path d="M0-32c19 0 34 15 34 34 0 26-34 59-34 59S-34 28-34 2c0-19 15-34 34-34Z" fill="#e96f4f"/><circle r="11" fill="#fff"/><text x="45" y="8" fill="#063f46">태안</text></g>
    <g transform="translate(456 350)"><path d="M0-32c19 0 34 15 34 34 0 26-34 59-34 59S-34 28-34 2c0-19 15-34 34-34Z" fill="#e96f4f"/><circle r="11" fill="#fff"/><text x="45" y="8" fill="#063f46">한강</text></g>
    <g transform="translate(540 590)"><path d="M0-32c19 0 34 15 34 34 0 26-34 59-34 59S-34 28-34 2c0-19 15-34 34-34Z" fill="#e96f4f"/><circle r="11" fill="#fff"/><text x="45" y="8" fill="#063f46">통영</text></g>
  </g>
  <text x="54" y="74" font-family="Segoe UI, Arial" font-size="38" font-weight="900" fill="#063f46">Fishing Spots</text>
</svg>
